HIERARCHY
ROOT Hips
{
    OFFSET 0.000000 0.000000 0.000000
    CHANNELS 6 Xposition Yposition Zposition Zrotation Xrotation Yrotation
    JOINT Chest
    {
        OFFSET -0.000000 0.078597 0.000000
        CHANNELS 3 Zrotation Xrotation Yrotation
        JOINT Chest2
        {
            OFFSET -0.000000 0.230468 0.000000
            CHANNELS 3 Zrotation Xrotation Yrotation
            JOINT Neck
            {
                OFFSET -0.000000 0.249638 0.000000
                CHANNELS 3 Zrotation Xrotation Yrotation
                JOINT Head
                {
                    OFFSET -0.000000 0.103998 0.019170
                    CHANNELS 3 Zrotation Xrotation Yrotation
                    End Site
                    {
                        OFFSET -0.000000 0.191701 0.000000
                    }
                }
            }
            JOINT LeftCollar
            {
                OFFSET 0.038274 0.205938 -0.001496
                CHANNELS 3 Zrotation Xrotation Yrotation
                JOINT LeftShoulder
                {
                    OFFSET 0.132388 0.000000 0.000000
                    CHANNELS 3 Zrotation Xrotation Yrotation
                    JOINT LeftElbow
                    {
                        OFFSET 0.250301 0.000000 0.000000
                        CHANNELS 3 Zrotation Xrotation Yrotation
                        JOINT LeftWrist
                        {
                            OFFSET 0.285291 0.000000 0.000000
                            CHANNELS 3 Zrotation Xrotation Yrotation
                            End Site
                            {
                                OFFSET 0.000000 -0.143776 0.000000
                            }
                        }
                    }
                }
            }
            JOINT RightCollar
            {
                OFFSET -0.038406 0.205938 -0.001496
                CHANNELS 3 Zrotation Xrotation Yrotation
                JOINT RightShoulder
                {
                    OFFSET -0.132388 0.000000 0.000000
                    CHANNELS 3 Zrotation Xrotation Yrotation
                    JOINT RightElbow
                    {
                        OFFSET -0.250301 0.000000 0.000000
                        CHANNELS 3 Zrotation Xrotation Yrotation
                        JOINT RightWrist
                        {
                            OFFSET -0.285291 0.000000 0.000000
                            CHANNELS 3 Zrotation Xrotation Yrotation
                            End Site
                            {
                                OFFSET -0.000000 -0.143776 0.000000
                            }
                        }
                    }
                }
            }
        }
    }
    JOINT LeftHip
    {
        OFFSET 0.095851 0.000000 0.000000
        CHANNELS 3 Zrotation Xrotation Yrotation
        JOINT LeftKnee
        {
            OFFSET -0.000000 -0.406444 0.000000
            CHANNELS 3 Zrotation Xrotation Yrotation
            JOINT LeftAnkle
            {
                OFFSET -0.000000 -0.408443 0.000000
                CHANNELS 3 Zrotation Xrotation Yrotation
                JOINT LeftToe
                {
                    OFFSET -0.000000 -0.062303 0.143776
                    CHANNELS 3 Zrotation Xrotation Yrotation
                    End Site
                    {
                        OFFSET -0.000000 0.000000 0.038340
                    }
                }
            }
        }
    }
    JOINT RightHip
    {
        OFFSET -0.095851 0.000000 0.000000
        CHANNELS 3 Zrotation Xrotation Yrotation
        JOINT RightKnee
        {
            OFFSET -0.000000 -0.406444 0.000000
            CHANNELS 3 Zrotation Xrotation Yrotation
            JOINT RightAnkle
            {
                OFFSET -0.000000 -0.408443 0.000000
                CHANNELS 3 Zrotation Xrotation Yrotation
                JOINT RightToe
                {
                    OFFSET -0.000000 -0.062303 0.143776
                    CHANNELS 3 Zrotation Xrotation Yrotation
                    End Site
                    {
                        OFFSET -0.000000 0.000000 0.038340
                    }
                }
            }
        }
    }
}
MOTION
Frames:    7
Frame Time:    0.016667
-0.023204    0.875792    0.209340    -2.274310    2.820210    -176.222778    0.733222    3.689655    -3.213022    -0.933905    10.365534    -0.976408    12.646108    18.738436    -15.317537    2.635121    4.706748    -12.485611    8.437792    4.389575    -6.576083    -54.533783    41.911083    -20.936831    -0.168264    -1.832143    -37.083851    96.053017    -0.211093    1.900103    0.154697    -7.971631    9.006362    45.956493    17.138615    3.209002    8.072680    -23.786325    122.560776    -67.087227    -11.896480    -34.155117    6.840983    0.794565    4.533916    -5.171115    11.581296    15.143692    -4.273022    -11.896250    10.305104    0.000000    0.000000    0.000000    -8.909182    -2.251705    2.316815    3.995626    12.139713    -1.990824    0.224598    -16.044174    -13.493166    0.000000    0.000000    0.000000    
-0.022663    0.875710    0.207759    -2.141348    2.958904    -176.193161    0.665768    3.634859    -3.244106    -0.996199    10.261343    -0.982955    12.147483    18.317648    -14.741467    2.428633    4.898828    -12.055299    8.343447    4.467060    -6.429128    -54.452194    41.844810    -21.031391    -0.210649    -1.607578    -36.964428    96.227417    -0.293471    1.694350    0.085552    -7.945706    8.926324    46.619904    17.248957    2.722918    8.253078    -23.426207    121.495377    -66.654831    -12.053429    -33.762085    7.074776    0.904592    4.464707    -5.243813    11.822065    15.189428    -4.368387    -12.084810    10.253340    0.000000    0.000000    0.000000    -8.712474    -1.976224    2.281026    3.971771    12.077168    -1.968371    0.200094    -16.087486    -13.503266    0.000000    0.000000    0.000000    
-0.022252    0.875677    0.206330    -2.032191    3.046275    -176.149704    0.597140    3.542997    -3.262009    -1.180725    10.101025    -0.974919    11.838224    17.826372    -14.184602    1.841926    5.087624    -11.527345    8.310982    4.460260    -6.483730    -54.717880    41.767666    -20.735989    -0.128450    -1.653031    -36.895206    96.100479    -0.239012    1.708978    0.313595    -7.731881    8.910179    46.991302    17.307699    2.499902    7.821292    -24.008955    120.120049    -70.073135    -9.541532    -34.142994    7.275796    0.977840    4.389833    -5.322948    12.002854    15.303848    -4.477407    -12.224851    10.133691    0.000000    0.000000    0.000000    -8.564565    -1.773658    2.159779    3.964293    12.052689    -1.946239    0.188444    -16.124603    -13.465587    0.000000    0.000000    0.000000    
-0.021673    0.875643    0.204708    -1.885836    3.144866    -176.067398    0.529907    3.433283    -3.320730    -1.236831    9.934173    -0.992322    11.321816    17.249550    -13.458020    1.060528    5.233422    -10.853577    8.111620    4.625415    -6.381464    -54.397957    41.692974    -20.943319    -0.505297    -1.901296    -36.779503    96.212234    -0.319888    2.086947    0.349901    -7.615707    8.924963    47.763138    17.861954    1.995231    8.100563    -24.141960    118.566879    -67.415390    -12.580433    -33.464802    7.583633    1.061871    4.325401    -5.495967    12.204467    15.317265    -4.587251    -12.367163    10.074872    0.000000    0.000000    0.000000    -8.329586    -1.493917    1.952854    3.860419    11.949549    -1.835966    0.196665    -16.144573    -13.437646    0.000000    0.000000    0.000000    
-0.021213    0.875608    0.203052    -1.724634    3.212638    -175.927887    0.534393    3.287944    -3.390887    -1.378251    9.741683    -1.006181    10.719467    16.714657    -12.659313    0.402148    5.069357    -10.138289    8.006083    4.733370    -6.392037    -54.511211    41.626732    -20.830112    -0.410961    -2.045135    -36.582088    95.818420    -0.280885    2.195592    0.516179    -7.404822    8.946193    47.672462    16.675148    2.382999    40.186077    -4.300332    126.768074    -70.811195    4.466404    -3.056353    7.926646    1.158934    4.161733    -5.747437    12.295712    15.327753    -4.604402    -12.519716    10.086254    0.000000    0.000000    0.000000    -8.143844    -1.206352    1.722753    3.878576    11.789724    -1.691340    0.075741    -16.102531    -13.534051    0.000000    0.000000    0.000000    
-0.021003    0.875680    0.201400    -1.635343    3.279733    -175.747253    0.487543    3.170278    -3.379615    -1.503663    9.497998    -0.995719    9.997175    16.045488    -11.755284    0.002493    4.981436    -9.398620    7.849224    4.757185    -6.427508    -54.237274    41.684292    -21.061813    -0.720111    -1.731961    -36.134415    96.096008    -0.554194    1.996674    0.612126    -7.100842    8.827690    48.770844    17.598475    1.076520    9.440081    -23.115219    116.129768    -67.334717    -13.102054    -33.694088    8.136168    1.185219    4.210620    -5.847295    12.522644    15.126140    -4.718744    -12.615282    10.055549    0.000000    0.000000    0.000000    -8.031019    -0.902900    1.605651    3.891187    11.632528    -1.711266    0.092034    -16.129852    -13.555223    0.000000    0.000000    0.000000    
-0.020694    0.875611    0.199434    -1.519354    3.407603    -175.581558    0.416168    3.124637    -3.364939    -1.494496    9.179629    -0.996687    9.055523    15.342520    -10.768296    -0.459001    5.112079    -8.615361    7.755108    4.750146    -6.387102    -54.376419    41.612720    -21.057882    -0.862866    -1.669076    -35.747608    95.848289    -0.599875    1.978235    0.466896    -6.773548    8.707650    49.480312    16.968283    0.504682    10.428751    -22.078922    115.113770    -66.647751    -13.259227    -33.718597    8.361000    1.400799    4.222159    -5.917401    12.608247    14.866303    -4.753826    -12.845084    10.050749    0.000000    0.000000    0.000000    -7.838933    -0.539521    1.691738    3.866098    11.478025    -1.932662    0.066473    -16.164528    -13.615309    0.000000    0.000000    0.000000    
